<svg id="Capa_1" data-name="Capa 1" xmlns="http://www.w3.org/2000/svg" viewBox="0 0 763.753 330.275"><defs><style>.cls-1{fill:#fff;}.cls-2{fill:none;stroke:#caab51;stroke-miterlimit:10;stroke-width:2px;}</style></defs><title>logo--white</title><path class="cls-1" d="M259.406,347.431L18.123,21.743H55.738l203.668,277.98v47.708Z" transform="translate(-18.123 -17.156)"/><path class="cls-1" d="M547.475,182.293c0,125.688,62.843,160.551,62.843,160.551s-94.954-30.276-94.954-160.551,94.954-160.55,94.954-160.55S547.475,56.605,547.475,182.293Zm194.951,77.523s4.587,2.752,4.587,9.632v33.028c0,28.44-22.936,40.368-22.936,40.368s52.753-5.965,52.753-40.827V269.449a11,11,0,0,1,5.046-9.632h-39.45Zm34.4-199.541s-6.422-13.3-15.137-22.018a100.492,100.492,0,0,0-22.936-16.514H776.83V60.275Z" transform="translate(-18.123 -17.156)"/><line class="cls-2" y1="167.431" x2="763.753" y2="167.431"/><path class="cls-1" d="M425,342.844L332.8,63.486l14.679-46.33L458.027,342.844H425Z" transform="translate(-18.123 -17.156)"/></svg>